<svg width="630px" height="225px" fill="none" xmlns="http://www.w3.org/2000/svg">
<path d="M570.6,157.8c17.8,13,35.8,25.6,53.3,38.9c3.9,3-0.2,3.3-3.2,3.1c-18.5-1.2-37.7,5-54.6,11.7" stroke="#001524" stroke-width="3" stroke-linecap="round"/>
<path d="M574.8,152.3c17.8,13,35.8,25.6,53.3,38.9c3.9,3-0.2,3.3-3.2,3.1c-18.5-1.2-37.7,5-54.6,11.7" stroke="#FFB703" stroke-width="3" stroke-linecap="round"/>
<path d="M2,3.4c0,0,24.4-1.5,81.3,20.5c48.8,21.7,73,50,95,96.8c10.2,21.8,23.2,59.2,10.2,84.8 c-10.5,20.7-31,10.6-43.5,0.5c-22.7-18.4-34.9-43.4-37.4-72.6c-1.2-14.8-1-30.8,5.3-44.3c14.4-30.9,51.3-46.7,82.2-51.1 c43.7-6.2,105.6,4.5,146,18.1c48.5,16.3,97.7,44.8,138.2,75.8c34.4,26.3,88.3,52.2,131.9,55.5" stroke="#FFB703" stroke-width="3" stroke-linecap="round"/>
<path d="M1.8,5.9c0,0,30.4-0.2,88,23.3c48.8,21.7,73,50,95,96.8c10.2,21.8,23.2,59.2,10.2,84.8 c-10.5,20.7-31,10.6-43.5,0.5c-22.7-18.4-34.9-43.4-37.4-72.6c-1.2-14.8-1-30.8,5.3-44.3c14.4-30.9,51.3-46.7,82.2-51.1 c43.7-6.2,105.6,4.5,146,18.1c48.5,16.3,97.7,44.8,138.2,75.8c34.4,26.3,88.3,52.2,131.9,55.5" stroke="#001524" stroke-width="3" stroke-linecap="round"/>
</svg>
