<svg fill="none" xmlns="http://www.w3.org/2000/svg">
<path fill-rule="evenodd" clip-rule="evenodd" d="M42.9844 2.12801L5.66847 22.0943C0.535494 24.8067 -1.1755 30.8342 1.75763 35.5809C4.69076 40.3276 11.2088 41.9098 16.3418 39.1974L53.6577 19.2312C58.7907 16.5188 60.5017 10.4912 57.5686 5.74454C54.6354 0.99784 48.1174 -0.584388 42.9844 2.12801Z" fill="#EA4334"/>
<path fill-rule="evenodd" clip-rule="evenodd" d="M53.3306 42.136L16.0147 22.2451C10.8817 19.5327 4.36361 21.1149 1.43048 25.8616C-1.50265 30.6083 0.208346 36.6358 5.34132 39.3482L42.6572 59.2392C47.7902 61.9516 54.3083 60.3693 57.2414 55.6226C60.1745 50.9513 58.4635 44.8484 53.3306 42.136Z" fill="#4285F4"/>
<path fill-rule="evenodd" clip-rule="evenodd" d="M78.3437 42.438L115.66 22.5471C120.793 19.8347 127.311 21.4169 130.244 26.1636C133.177 30.9103 131.466 36.9378 126.333 39.6502L89.017 59.6165C83.884 62.3289 77.3659 60.6713 74.3513 56C71.4182 51.2533 73.2107 45.2257 78.3437 42.438Z" fill="#FCBC05"/>
<path d="M126.216 39.4292L126.215 39.4298L88.9002 59.3955C83.8779 62.0494 77.5047 60.4229 74.5627 55.8664C71.7139 51.2536 73.4449 45.3836 78.4621 42.6582C78.4624 42.658 78.4627 42.6578 78.463 42.6577L115.776 22.7681C120.803 20.112 127.173 21.6694 130.031 26.295C132.884 30.9125 131.228 36.781 126.216 39.4292Z" stroke="black" stroke-opacity="0.24" stroke-width="0.5"/>
<path fill-rule="evenodd" clip-rule="evenodd" d="M89.3428 2.4294L126.659 22.3957C131.792 25.1081 133.503 31.1356 130.57 35.8823C127.636 40.629 121.118 42.2112 115.985 39.4988L78.6694 19.5326C73.5365 16.8202 71.8255 10.7926 74.7586 6.04593C77.6917 1.29924 84.2098 -0.282997 89.3428 2.4294Z" fill="#0D9D58"/>
</svg>
