<svg width="139" height="141" viewBox="0 0 139 141" fill="none" xmlns="http://www.w3.org/2000/svg">
<circle cx="70.683" cy="72.0495" r="67.3168" stroke="#FFB703" stroke-width="2"/>
<path d="M117.821 24.2277C123.266 61.5377 119.601 91.7444 110.307 126.02" stroke="#FFB703" stroke-width="2"/>
<path d="M36.5704 14.6633C22.8481 71.5173 31.3097 101.361 47.4552 134.901" stroke="#FFB703" stroke-width="2"/>
<path d="M73.4155 3.73267C84.2684 59.1457 84.03 90.1531 75.465 138.317" stroke="#FFB703" stroke-width="2"/>
<path d="M12.6138 39.2574C59.5987 33.6996 94.4498 34.9745 134.901 53.6039" stroke="#FFB703" stroke-width="2"/>
<path d="M2.36621 74.099C50.8295 96.8204 78.7741 104.39 131.485 98.6931" stroke="#FFB703" stroke-width="2"/>
<circle cx="69.3168" cy="69.3168" r="67.3168" stroke="#001524" stroke-width="2"/>
<path d="M116.455 21.495C121.899 58.805 118.235 89.0118 108.94 123.287" stroke="#001524" stroke-width="2"/>
<path d="M35.2042 11.9307C21.4819 68.7846 29.9435 98.6282 46.089 132.168" stroke="#001524" stroke-width="2"/>
<path d="M72.0493 1C82.9022 56.4131 82.6637 87.4204 74.0988 135.584" stroke="#001524" stroke-width="2"/>
<path d="M11.2476 36.5247C58.2325 30.967 93.0836 32.2419 133.535 50.8713" stroke="#001524" stroke-width="2"/>
<path d="M1 71.3663C49.4633 94.0877 77.4079 101.658 130.119 95.9604" stroke="#001524" stroke-width="2"/>
</svg>
