<svg width="40" height="40" viewBox="0 0 40 40" xmlns="http://www.w3.org/2000/svg">
<path d="M18.5 3.56726C10.0903 4.32511 3.5 11.3929 3.5 20C3.5 29.1127 10.8873 36.5 20 36.5C24.6427 36.5 28.8371 34.5839 31.8369 31.4951L19.0571 21.1666C18.7048 20.8818 18.5 20.4531 18.5 20V3.56726ZM21.5 3.56726V18.5H36.4327C35.7194 10.5843 29.4157 4.28059 21.5 3.56726ZM36.4328 21.5H24.2424L33.7241 29.1631C35.2165 26.9328 36.179 24.3194 36.4328 21.5ZM0.5 20C0.5 9.23045 9.23045 0.5 20 0.5C30.7696 0.5 39.5 9.23045 39.5 20C39.5 24.6424 37.8758 28.9095 35.1661 32.2582C31.5936 36.6731 26.1264 39.5 20 39.5C9.23045 39.5 0.5 30.7696 0.5 20Z"/>
</svg>
