<svg width="50" height="50" viewBox="0 0 50 50" xmlns="http://www.w3.org/2000/svg">
<path d="M24.9999 4.18476L19.8368 9.52692C19.2872 10.0955 18.5303 10.4166 17.7395 10.4166H10.4166V17.7395C10.4166 18.5303 10.0955 19.2872 9.52692 19.8368L4.18475 25L9.52692 30.1632C10.0955 30.7127 10.4166 31.4696 10.4166 32.2604V39.5833H17.7395C18.5303 39.5833 19.2872 39.9044 19.8368 40.473L24.9999 45.8152L30.1631 40.473C30.7127 39.9044 31.4696 39.5833 32.2604 39.5833H39.5833V32.2604C39.5833 31.4696 39.9044 30.7127 40.473 30.1631L45.8152 25L40.473 19.8368C39.9044 19.2872 39.5833 18.5303 39.5833 17.7395V10.4166H32.2604C31.4696 10.4166 30.7127 10.0955 30.1631 9.52692L24.9999 4.18476ZM22.9027 1.31841C24.0493 0.132143 25.9506 0.132145 27.0972 1.31841L32.5078 6.91662H40.1666C41.7775 6.91662 43.0833 8.22246 43.0833 9.83329V17.4921L48.6815 22.9027C49.8678 24.0493 49.8678 25.9507 48.6815 27.0972L43.0833 32.5078V40.1666C43.0833 41.7775 41.7775 43.0833 40.1666 43.0833H32.5078L27.0972 48.6815C25.9506 49.8678 24.0492 49.8678 22.9027 48.6815L17.4921 43.0833H9.83329C8.22246 43.0833 6.91662 41.7774 6.91662 40.1666V32.5078L1.31841 27.0972C0.132145 25.9507 0.132143 24.0493 1.31841 22.9027L6.91662 17.4921V9.83329C6.91662 8.22246 8.22246 6.91662 9.83329 6.91662H17.4921L22.9027 1.31841Z"/>
<path d="M13.9166 25C13.9166 18.8788 18.8788 13.9166 25 13.9166C31.1211 13.9166 36.0833 18.8788 36.0833 25C36.0833 31.1211 31.1211 36.0833 25 36.0833C18.8788 36.0833 13.9166 31.1211 13.9166 25ZM25 17.4166C20.8118 17.4166 17.4166 20.8118 17.4166 25C17.4166 29.1881 20.8118 32.5833 25 32.5833C29.1881 32.5833 32.5833 29.1881 32.5833 25C32.5833 20.8118 29.1881 17.4166 25 17.4166Z"/>
</svg>
