<svg width="38" height="36" viewBox="0 0 38 36" xmlns="http://www.w3.org/2000/svg">
<path d="M15.9726 2.22826C17.3215 -0.0962728 20.6783 -0.0962664 22.0272 2.22826L26.1579 9.34698C26.5386 10.0032 27.1967 10.4509 27.9469 10.5642L34.8061 11.6002C37.7962 12.0518 38.8449 15.827 36.5164 17.7562L31.5186 21.8968C30.8171 22.478 30.4872 23.3947 30.6577 24.2896L32.0576 31.6415C32.606 34.5214 29.5828 36.759 26.9887 35.3932L20.1647 31.8C19.4356 31.4161 18.5642 31.4161 17.8351 31.8L11.0111 35.3932C8.41706 36.759 5.3938 34.5214 5.9422 31.6415L7.34216 24.2896C7.51256 23.3947 7.18273 22.478 6.48124 21.8968L1.48344 17.7562C-0.84513 15.827 0.203677 12.0518 3.19367 11.6002L10.053 10.5642C10.8031 10.4509 11.4612 10.0032 11.8419 9.34698L15.9726 2.22826ZM19.4324 3.73392C19.2397 3.40184 18.7601 3.40185 18.5674 3.73392L14.4367 10.8526C13.5991 12.2962 12.1513 13.2813 10.501 13.5306L3.6417 14.5666C3.21455 14.6311 3.06473 15.1704 3.39738 15.446L8.39518 19.5866C9.93845 20.8652 10.6641 22.882 10.2892 24.8508L8.88924 32.2027C8.8109 32.6141 9.24279 32.9338 9.61337 32.7387L16.4374 29.1455C18.0414 28.301 19.9584 28.301 21.5624 29.1455L28.3864 32.7387C28.757 32.9338 29.1889 32.6141 29.1106 32.2027L27.7106 24.8508C27.3357 22.882 28.0614 20.8652 29.6046 19.5866L34.6024 15.446C34.9351 15.1704 34.7853 14.6311 34.3581 14.5666L27.4988 13.5306C25.8485 13.2813 24.4007 12.2962 23.5631 10.8526L19.4324 3.73392Z"/>
</svg>
