<svg width="43" height="40" viewBox="0 0 43 40" xmlns="http://www.w3.org/2000/svg">
<path d="M28 34.256C29.706 34.7513 31.4736 35.0018 33.25 35C36.1069 35.0041 38.9265 34.3528 41.4921 33.096C41.5679 31.3034 41.0573 29.5349 40.0376 28.0587C39.0179 26.5824 37.5448 25.4787 35.8415 24.915C34.1381 24.3513 32.2974 24.3582 30.5984 24.9348C28.8993 25.5113 27.4346 26.6261 26.426 28.11M28 34.256V34.25C28 32.024 27.43 29.93 26.428 28.11M28 34.256V34.468C24.151 36.7862 19.7413 38.0076 15.248 38C10.586 38 6.22405 36.71 2.50005 34.468L2.49805 34.25C2.49651 31.4189 3.43727 28.6679 5.17201 26.4305C6.90675 24.1932 9.33679 22.5969 12.079 21.8932C14.8213 21.1895 17.7197 21.4186 20.3174 22.5442C22.9151 23.6698 25.0642 25.628 26.426 28.11M22 8.75C22 10.5402 21.2889 12.2571 20.023 13.523C18.7571 14.7888 17.0403 15.5 15.25 15.5C13.4598 15.5 11.7429 14.7888 10.4771 13.523C9.21121 12.2571 8.50005 10.5402 8.50005 8.75C8.50005 6.95979 9.21121 5.2429 10.4771 3.97703C11.7429 2.71116 13.4598 2 15.25 2C17.0403 2 18.7571 2.71116 20.023 3.97703C21.2889 5.2429 22 6.95979 22 8.75V8.75ZM38.5 13.25C38.5 14.6424 37.9469 15.9777 36.9624 16.9623C35.9778 17.9469 34.6424 18.5 33.25 18.5C31.8577 18.5 30.5223 17.9469 29.5377 16.9623C28.5532 15.9777 28 14.6424 28 13.25C28 11.8576 28.5532 10.5223 29.5377 9.53769C30.5223 8.55312 31.8577 8 33.25 8C34.6424 8 35.9778 8.55312 36.9624 9.53769C37.9469 10.5223 38.5 11.8576 38.5 13.25V13.25Z" stroke-width="3" stroke-linecap="round" stroke-linejoin="round"/>
</svg>
