<svg width="30" height="28" viewBox="0 0 30 28" fill="none" xmlns="http://www.w3.org/2000/svg">
    <path fill-rule="evenodd" clip-rule="evenodd"
        d="M27.7955 2.7955C28.2348 2.35616 28.2348 1.64384 27.7955 1.2045C27.3562 0.765165 26.6438 0.765165 26.2045 1.2045L2.2045 25.2045C1.76517 25.6438 1.76517 26.3562 2.2045 26.7955C2.64384 27.2348 3.35616 27.2348 3.7955 26.7955L8.06584 22.5252C10.1153 23.4899 12.4758 24.125 15 24.125C19.026 24.125 22.6355 22.5094 25.2309 20.5175C26.5311 19.5196 27.6048 18.4063 28.3633 17.3133C29.1009 16.2504 29.625 15.0841 29.625 14C29.625 12.9159 29.1009 11.7496 28.3633 10.6867C27.6048 9.59367 26.5311 8.48042 25.2309 7.48255C24.8377 7.18077 24.4212 6.88763 23.9836 6.60744L27.7955 2.7955ZM22.3493 8.24169L19.6931 10.8979C20.282 11.7872 20.625 12.8535 20.625 14C20.625 17.1066 18.1066 19.625 15 19.625C13.8535 19.625 12.7872 19.282 11.8979 18.6931L9.77286 20.8181C11.3712 21.4693 13.1432 21.875 15 21.875C18.4298 21.875 21.5703 20.4906 23.861 18.7325C25.0038 17.8554 25.9071 16.9062 26.5149 16.0305C27.1435 15.1246 27.375 14.4159 27.375 14C27.375 13.5841 27.1435 12.8754 26.5149 11.9695C25.9071 11.0938 25.0038 10.1446 23.861 9.26745C23.3912 8.90691 22.8857 8.56208 22.3493 8.24169ZM13.5449 17.0461C13.9855 17.2569 14.479 17.375 15 17.375C16.864 17.375 18.375 15.864 18.375 14C18.375 13.479 18.2569 12.9855 18.0461 12.5449L13.5449 17.0461Z"
        fill="#001524" />
    <path
        d="M15 3.875C16.6207 3.875 18.1739 4.13682 19.6207 4.57961C19.7985 4.63402 19.8515 4.85753 19.72 4.989L18.2902 6.4188C18.2284 6.48065 18.1387 6.50552 18.0536 6.48548C17.0736 6.25484 16.0504 6.125 15 6.125C11.5702 6.125 8.42967 7.50938 6.13901 9.26745C4.99616 10.1446 4.09286 11.0938 3.48514 11.9695C2.85646 12.8754 2.625 13.5841 2.625 14C2.625 14.4159 2.85646 15.1246 3.48514 16.0305C4.03624 16.8246 4.83041 17.6792 5.82586 18.4856C5.94262 18.5802 5.9536 18.7554 5.84735 18.8617L4.60458 20.1044C4.51427 20.1948 4.37022 20.2026 4.27183 20.1212C3.19404 19.2293 2.29621 18.2637 1.63665 17.3133C0.899056 16.2504 0.375 15.0841 0.375 14C0.375 12.9159 0.899056 11.7496 1.63665 10.6867C2.39521 9.59367 3.46893 8.48042 4.76911 7.48255C7.36448 5.49062 10.974 3.875 15 3.875Z"
        fill="#001524" />
    <path
        d="M15 8.375C15.2558 8.375 15.5075 8.39207 15.7543 8.42513C15.9502 8.45139 16.021 8.68801 15.8812 8.82781L13.9011 10.8079C12.9211 11.1452 12.1452 11.9211 11.8079 12.9011L9.82781 14.8812C9.68801 15.021 9.45139 14.9502 9.42513 14.7543C9.39207 14.5075 9.375 14.2558 9.375 14C9.375 10.8934 11.8934 8.375 15 8.375Z"
        fill="#001524" />
</svg>
    