<svg width="21" height="22" viewBox="0 0 21 22" fill="none" xmlns="http://www.w3.org/2000/svg">
    <path fill-rule="evenodd" clip-rule="evenodd"
        d="M14.9212 0.337087C14.7453 0.161272 14.5069 0.0625 14.2582 0.0625C14.0096 0.0625 13.7711 0.161272 13.5953 0.337087L2.10485 11.8276C1.98707 11.9454 1.90279 12.0924 1.8607 12.2536L0.610695 17.0391C0.526583 17.3611 0.619507 17.7036 0.85485 17.9389C1.09019 18.1743 1.43267 18.2672 1.75469 18.1831L6.54023 16.9331C6.70139 16.891 6.84843 16.8067 6.96621 16.6889L18.4567 5.19845C18.8228 4.83233 18.8228 4.23874 18.4567 3.87262L14.9212 0.337087ZM3.61054 12.9735L14.2582 2.32583L16.468 4.53553L5.82025 15.1832L2.82929 15.9645L3.61054 12.9735Z"
        fill="#001524" />
    <path
        d="M1 20.0625C0.482233 20.0625 0.0625 20.4822 0.0625 21C0.0625 21.5178 0.482233 21.9375 1 21.9375H19.75C20.2678 21.9375 20.6875 21.5178 20.6875 21C20.6875 20.4822 20.2678 20.0625 19.75 20.0625H1Z"
        fill="#001524" />
</svg>
    